<?xml version="1.0" encoding="utf-8"?>
<!-- Generator: Adobe Illustrator 26.5.1, SVG Export Plug-In . SVG Version: 6.00 Build 0)  -->
<svg version="1.1" id="Layer_1" xmlns="http://www.w3.org/2000/svg" xmlns:xlink="http://www.w3.org/1999/xlink" x="0px" y="0px"
	 viewBox="0 0 204 204.4" style="enable-background:new 0 0 204 204.4;" xml:space="preserve">
<style type="text/css">
	.st0{fill:#FFFFFF;}
</style>
<g>
	<path class="st0" d="M52.8,185.8c9.1-15.3,8.6-26.2-0.8-34.9c-9-8.2-20.8-8.2-32.5,0.7c-5.6-6.1-11.9-11.8-16.9-18.4
		c-4.6-6.1-2.8-13.7,3.3-19.8c18.9-19,37.9-38,56.8-57c16.7-16.8,33.4-33.5,50.1-50.2C120.9-2,129.4-2,137.6,6
		c4.5,4.4,9.2,8.6,13.6,12.7c-9.1,14.4-8.6,26.2,0.8,34.7c9.3,8.4,21.2,8.2,32.6-0.8c4.7,4.9,9.4,9.8,14.1,14.7
		c6.9,7.1,6.9,15.9-0.1,23c-16.5,16.7-33.1,33.3-49.7,50c-19,19.1-38.1,38.3-57.1,57.4c-8.9,9-17.2,8.9-26.3-0.1
		C61.5,193.5,57,189.6,52.8,185.8z M86.7,170.2c2.4-1.6,4.7-2.6,6.4-4.3c24.3-24.2,48.5-48.6,72.7-72.9c4.4-4.4,4.5-8.1,0.2-12.5
		c-13.9-14.1-27.9-28.2-42-42.2c-4.6-4.6-8.5-4.7-13-0.2c-24.4,24.4-48.7,48.9-73,73.4c-4.4,4.4-4.2,8.1,0.2,12.5
		c13.9,14.1,27.9,28.2,42,42.2C81.9,167.8,84.3,168.7,86.7,170.2z"/>
	<path class="st0" d="M118.3,49.8c11.8,11.7,24.4,24.1,37,36.5c-23.1,22.7-46.2,45.5-69.1,68c-11.7-11.7-24.2-24.2-36.6-36.6
		C72.1,95.3,95.2,72.6,118.3,49.8z"/>
</g>
</svg>
