<?xml version="1.0" encoding="utf-8"?>
<!-- Generator: Adobe Illustrator 26.5.1, SVG Export Plug-In . SVG Version: 6.00 Build 0)  -->
<svg version="1.1" id="Layer_1" xmlns="http://www.w3.org/2000/svg" xmlns:xlink="http://www.w3.org/1999/xlink" x="0px" y="0px"
	 viewBox="0 0 203.97 204.42" style="enable-background:new 0 0 203.97 204.42;" xml:space="preserve">
<path d="M52.8,185.75c9.11-15.26,8.64-26.24-0.79-34.88c-8.95-8.2-20.83-8.16-32.51,0.68c-5.64-6.05-11.9-11.78-16.92-18.43
	c-4.57-6.05-2.8-13.71,3.28-19.82c18.91-19.01,37.86-37.99,56.8-56.98c16.7-16.75,33.4-33.5,50.12-50.23
	c8.11-8.11,16.65-8.08,24.81-0.13c4.51,4.39,9.19,8.61,13.6,12.74c-9.09,14.4-8.59,26.25,0.83,34.74
	c9.28,8.37,21.24,8.22,32.62-0.81c4.68,4.86,9.41,9.78,14.15,14.68c6.89,7.13,6.95,15.9-0.07,23c-16.51,16.7-33.09,33.34-49.65,50
	c-19.02,19.14-38.05,38.27-57.07,57.42c-8.92,8.98-17.15,8.9-26.27-0.07C61.48,193.47,56.96,189.56,52.8,185.75z M86.69,170.22
	c2.39-1.6,4.69-2.65,6.37-4.32c24.3-24.25,48.52-48.58,72.74-72.91c4.39-4.41,4.5-8.14,0.19-12.51
	c-13.93-14.12-27.92-28.17-41.96-42.18c-4.61-4.6-8.46-4.69-12.96-0.18c-24.38,24.4-48.72,48.86-73,73.36
	c-4.36,4.4-4.25,8.07,0.15,12.52c13.94,14.1,27.91,28.19,41.98,42.16C81.87,167.8,84.26,168.73,86.69,170.22z"/>
<path d="M118.26,49.77c11.84,11.71,24.37,24.11,36.95,36.54c-23.1,22.74-46.19,45.48-69.06,67.99
	c-11.67-11.67-24.22-24.21-36.62-36.61C72.13,95.35,95.16,72.6,118.26,49.77z"/>
</svg>
